<svg xmlns="http://www.w3.org/2000/svg" viewBox="0 0 117.1 61.07"><defs><style>.cls-1{fill:#ffde00;}.cls-2{fill:#002060;}.cls-3{fill:#c55a11;}.cls-4,.cls-5{fill:none;stroke-linecap:round;stroke-miterlimit:10;}.cls-4{stroke:#002060;stroke-width:0.5px;}.cls-5{stroke:#c55a11;stroke-width:0.6px;}</style></defs><g id="Layer_2" data-name="Layer 2"><g id="NavBar"><g id="Logo"><path class="cls-1" d="M117.1,0C80.76,32.21,72.7,5.53,50.67,2,22-2.53,7.16,18.91,0,39.49c0,0,24.74-2.34,42.79-19.75,8-7.68,31.15-19.38,44.62-17.46C103.4,4.57,116.62.64,117.1,0Z"/><path class="cls-2" d="M43.29,61.07S48,48,51,41.79c5-10.43.61-26.46.61-26.46s2.08.25,4.78,6.8c3.52,8.57,1.82,11.17,1.82,11.17s4.22-6.55,6-9.52c5-8.45,9.61-6,9.61-6A59.91,59.91,0,0,0,66,30.26c-1.87,4-4.84,11.19-7.73,15.3C52.45,53.77,43.29,61.07,43.29,61.07Z"/><path class="cls-3" d="M25.57,60.17s4.29-11.83,7-17.44c.42-.87-2.34-1.36-2.06-2.3,2.79-9.26,2.62-21.62,2.62-21.62S35,19,37.43,25c3.18,7.74,1.64,10.09,1.64,10.09s3.82-5.91,5.4-8.6C49,18.81,53.16,21,53.16,21a53.85,53.85,0,0,0-7.09,11.3c-1.32,2.79-3.82,15-3.82,15s-2.6-2-3.18-1.16C33.85,53.56,25.57,60.17,25.57,60.17Z"/><ellipse class="cls-3" cx="61.63" cy="17.71" rx="3.87" ry="3.84"/><ellipse class="cls-2" cx="41.78" cy="19.09" rx="3.87" ry="3.84"/><path class="cls-4" d="M10,30.78c11-9.11,13.46-28.07,57.12-23.33C80.15,8.86,84,16,103,4.57"/><path class="cls-5" d="M16.67,29.88C27.42,20.44,28.32,6.3,66.55,7.38c13.07.37,17.94,11.71,36.92-.06"/></g></g></g></svg>