<svg xmlns="http://www.w3.org/2000/svg" viewBox="0 0 39.96 25.7"><defs><style>.cls-1{fill:#c55a11;}.cls-2{fill:#002060;}</style></defs><g id="Layer_2" data-name="Layer 2"><g id="Layer_1-2" data-name="Layer 1"><path class="cls-1" d="M0,0H7.26q5.12,0,7.4,1.53A5.41,5.41,0,0,1,17,6.36a5.57,5.57,0,0,1-1.28,3.77A6.13,6.13,0,0,1,12,12.06v.17q5.86,1,5.86,6.16a6.63,6.63,0,0,1-2.33,5.38A10,10,0,0,1,9,25.7H0ZM3,11H7.91a8,8,0,0,0,4.55-1,3.83,3.83,0,0,0,1.39-3.35A3.38,3.38,0,0,0,12.3,3.54a9.64,9.64,0,0,0-4.92-1H3Zm0,2.54v9.61H8.35A7.63,7.63,0,0,0,13,22a4.46,4.46,0,0,0,1.58-3.77A4,4,0,0,0,13,14.66a8.61,8.61,0,0,0-4.9-1.12Z"/><path class="cls-2" d="M29.87,12.85,36.72,0H40L31.38,15.73v10h-3V15.87L19.79,0h3.27Z"/></g></g></svg>